<svg width="20" height="20" viewBox="0 0 20 20" fill="none" xmlns="http://www.w3.org/2000/svg">
<path fill-rule="evenodd" clip-rule="evenodd" d="M10 20C15.5228 20 20 15.5228 20 10C20 4.47715 15.5228 0 10 0C4.47715 0 0 4.47715 0 10C0 15.5228 4.47715 20 10 20ZM6.33238 11.5996C6.11126 11.0935 5.52174 10.8625 5.01565 11.0837C4.50957 11.3048 4.27855 11.8943 4.49967 12.4004C5.42463 14.5174 7.53804 16 9.99998 16C12.4619 16 14.5753 14.5174 15.5003 12.4004C15.7214 11.8943 15.4904 11.3048 14.9843 11.0837C14.4782 10.8625 13.8887 11.0935 13.6676 11.5996C13.0494 13.0145 11.6387 14 9.99998 14C8.36128 14 6.95054 13.0145 6.33238 11.5996ZM7 7C7 7.55228 6.55228 8 6 8C5.44772 8 5 7.55228 5 7C5 6.44772 5.44772 6 6 6C6.55228 6 7 6.44772 7 7ZM14 8C14.5523 8 15 7.55228 15 7C15 6.44772 14.5523 6 14 6C13.4477 6 13 6.44772 13 7C13 7.55228 13.4477 8 14 8Z" fill="currentColor"/>
</svg>
